<?xml version="1.0" ?><svg xmlns="http://www.w3.org/2000/svg" xmlns:xlink="http://www.w3.org/1999/xlink" version="1.1" id="Layer_1" viewBox="0 0 32 32" style="enable-background:new 0 0 32 32;" xml:space="preserve"><style type="text/css">
	.st0{fill:none;stroke:#000000;stroke-linecap:round;stroke-linejoin:round;stroke-miterlimit:10;}
</style><g><path class="st0" d="M19.7,30.1H1v-7.6c0-0.6,0.1-1.2,0.4-1.8v-0.1c0.1-0.1,0.1-0.2,0.2-0.3c0.1-0.1,0.1-0.2,0.2-0.3   c0.1,0,0.2-0.1,0.3-0.2s0.2-0.2,0.3-0.3c0.1-0.1,0.2-0.2,0.4-0.3C2.9,19.1,3,19,3.1,18.9s0.3-0.1,0.4-0.2l4.8-1.2   c1,1,2.2,1.7,3.5,1.7s2.5-0.7,3.4-1.7l0,0l3.3,0.8v0.5c0,0.2,0.1,0.3,0.2,0.5l0,0l-2,4.1c-0.3,0.6-0.6,1.3-0.6,2   c-0.1,1.4,0.5,2.8,1.5,3.7c0.2,0.2,0.5,0.4,0.9,0.5C18.9,29.9,19.3,30,19.7,30.1z"/><path class="st0" d="M11.8,30.1H1v-7.6c0-1.7,1-3.2,2.5-3.8l4.8-1.2L11.8,30.1z"/><path class="st0" d="M19.7,30.1h-8l0,0l0.5-1.6l1.1-4l1.9-6.9l3.3,0.8v0.5c0,0.2,0.1,0.3,0.2,0.5l0,0l-2,4.1   c-0.3,0.6-0.6,1.3-0.6,2c-0.1,1.4,0.5,2.8,1.5,3.7c0.2,0.2,0.5,0.4,0.9,0.5C18.9,29.9,19.3,30,19.7,30.1z"/><path class="st0" d="M9.4,3.2C9.1,5.5,7.7,7.5,5.8,8.6c0-0.3-0.1-0.6-0.1-0.9c0-2.3,1.3-4.3,3.2-5.3C9,2.7,9.2,2.9,9.4,3.2z"/><path class="st0" d="M17.5,5.9c-0.7,0.2-1.5,0.4-2.2,0.4c-2.5,0-4.6-1.2-5.9-3.1C9.2,2.9,9,2.7,8.9,2.4c0.9-0.5,1.8-0.7,2.9-0.7   C14.5,1.7,16.8,3.5,17.5,5.9z"/><path class="st0" d="M17.8,7.7c0,3.3-2.7,7.9-6,7.9s-6-4.6-6-7.9s2.7-6,6-6S17.8,4.4,17.8,7.7z"/><path class="st0" d="M15.2,13.9v3.6l0,0c-1,1-2.2,1.7-3.5,1.7s-2.5-0.7-3.5-1.7v-3.6c1,1,2.2,1.7,3.5,1.7   C13.1,15.6,14.2,14.9,15.2,13.9z"/><line class="st0" x1="10.7" y1="20.8" x2="12.8" y2="20.8"/><polygon class="st0" points="13.3,24.5 12.2,28.5 11.8,30.1 11.3,28.4 10.2,24.4 11.2,20.8 12.3,20.8  "/><g><path class="st0" d="M25.1,22.8h-1.2h-0.8c-0.6,0-1,0.5-1,1l0,0c0,0.6,0.5,1,1,1h1"/><path class="st0" d="M24.1,24.9c0.6,0,1,0.5,1,1l0,0c0,0.6-0.5,1-1,1h-2"/><line class="st0" x1="23.8" y1="21.7" x2="23.8" y2="22.8"/><line class="st0" x1="23.8" y1="26.9" x2="23.8" y2="28.1"/></g><path class="st0" d="M31,25.4c0.1,1.4-0.5,2.8-1.5,3.7c-0.8,0.7-2.6,1.1-3.8,1.1h-4.1c-0.9,0-2-0.2-2.9-0.6   c-0.4-0.2-0.7-0.3-0.9-0.5c-1.1-0.9-1.6-2.3-1.5-3.7c0-0.7,0.3-1.4,0.6-2l2-4.1l0,0c0,0,0.1,0.1,0.2,0.1h0.1c0,0,0,0,0.1,0h9   c0,0,0,0,0.1,0s0.2,0,0.3-0.1l0,0l2,4.1C30.7,24.1,31,24.7,31,25.4z"/><g><path class="st0" d="M26.6,11.8c0,0.2-0.1,0.4-0.1,0.5c-0.1,0.5-0.3,1-0.4,1.5l-0.7,2.9h-3.7L21,13.6c-0.1-0.4-0.2-0.9-0.4-1.3    c0-0.2-0.1-0.4-0.1-0.5c0-0.2-0.1-0.3,0-0.4c0.8-1.3,5.2-1.2,6.2,0C26.7,11.4,26.7,11.6,26.6,11.8z"/><path class="st0" d="M28.6,13.5l-1.5,3.1h-1.6l0.7-2.9c0.1-0.5,0.3-1,0.4-1.5h1.3C28.4,12.3,28.8,12.9,28.6,13.5z"/><path class="st0" d="M21.7,16.6h-1.6l-1.5-3.1c-0.3-0.6,0.1-1.2,0.8-1.2h1.3c0.1,0.4,0.3,0.9,0.4,1.3L21.7,16.6z"/></g><path class="st0" d="M28.1,19.4h-9c-0.3,0-0.6-0.3-0.6-0.6v-1.6c0-0.3,0.3-0.6,0.6-0.6h9c0.3,0,0.6,0.3,0.6,0.6v1.6   C28.6,19.2,28.4,19.4,28.1,19.4z"/></g></svg>